<svg width="504" height="477" viewBox="0 0 504 477" fill="white" xmlns="http://www.w3.org/2000/svg" xmlns:xlink="http://www.w3.org/1999/xlink">
<g filter="url(#filter0_f_321_665)">
<path d="M347.302 20.5426L368.139 78.9284L434.649 88.3118C444.752 89.7715 447.067 101.866 438.227 108.747L381.399 154.204L382.241 218.429C382.452 228.229 370.244 235.736 361.615 231.149L306.049 200.913L240.171 231.149C230.068 235.736 220.386 228.229 223.754 218.429L246.064 154.204L204.39 108.955C197.865 102.074 204.18 89.7715 214.914 88.5204L284.581 79.1369L324.782 20.7511C330.675 11.7847 344.145 11.7847 347.302 20.5426Z"/>
<path d="M159.769 246.161L180.606 304.547L247.116 313.93C257.218 315.39 259.534 327.484 250.694 334.366L193.866 379.823L194.707 444.048C194.918 453.848 182.71 461.355 174.081 456.767L118.095 426.532L52.2161 456.767C42.1133 461.355 32.4315 453.848 35.7991 444.048L58.3198 380.032L16.6459 334.574C10.1211 327.693 16.4354 315.39 27.1696 314.139L96.8367 304.756L137.037 246.37C143.141 237.403 156.612 237.403 159.769 246.161Z"/>
<path d="M463.59 250.111L484.427 308.497L550.937 317.881C561.04 319.34 563.355 331.435 554.515 338.316L497.687 383.773L498.529 447.998C498.739 457.798 486.532 465.305 477.902 460.717L422.127 430.482L356.459 460.717C346.356 465.305 336.674 457.798 340.042 447.998L362.141 383.773L320.467 338.316C314.153 331.435 320.257 319.132 330.991 317.881L400.658 308.497L440.859 250.111C446.963 241.354 460.433 241.354 463.59 250.111Z"/>
</g>
<defs>
<filter id="filter0_f_321_665" x="0" y="0" width="574" height="476.099" filterUnits="userSpaceOnUse" color-interpolation-filters="sRGB">
<feFlood flood-opacity="0" result="BackgroundImageFix"/>
<feBlend mode="normal" in="SourceGraphic" in2="BackgroundImageFix" result="shape"/>
<feGaussianBlur stdDeviation="7" result="effect1_foregroundBlur_321_665"/>
</filter>
</defs>
</svg>
