<svg width="107" height="36" viewBox="0 0 107 36" fill="none" xmlns="http://www.w3.org/2000/svg">
<g clip-path="url(#clip0_1016_371)">
<path d="M49.0645 7.27854V12.9262C49.0645 13.3188 49.156 13.6057 49.3541 13.7869C49.5523 13.9681 49.8724 14.0436 50.3296 14.0436H51.7167V16.5353H49.8419C47.3269 16.5353 46.0771 15.3272 46.0771 12.9111V7.27854H44.6748V4.84733H46.0771V1.9631H49.0645V4.84733H51.7014V7.27854H49.0645Z" fill="black"/>
<path d="M58.3318 5.20972C58.972 4.84731 59.7036 4.6661 60.4504 4.6812V7.77684H59.6579C58.7281 7.77684 58.0117 7.98825 57.5392 8.42617C57.0667 8.86409 56.8228 9.61912 56.8228 10.7064V16.5201H53.8506V4.84731H56.8228V6.65939C57.2039 6.05536 57.7221 5.55704 58.3318 5.20972Z" fill="black"/>
<path d="M62.4013 7.50505C62.8281 6.62921 63.514 5.90438 64.3371 5.39095C65.1601 4.89263 66.1051 4.63592 67.0654 4.65102C67.9494 4.65102 68.7116 4.83223 69.367 5.17954C69.9919 5.49666 70.5254 5.94968 70.9522 6.5084V4.84733H73.9549V16.5352H70.9522V14.8289C70.5406 15.4027 69.9919 15.8708 69.367 16.1879C68.6963 16.5504 67.919 16.7316 67.0349 16.7316C66.0747 16.7467 65.1296 16.4748 64.3218 15.9765C63.4835 15.448 62.8128 14.7081 62.3861 13.8322C61.9135 12.9111 61.6697 11.854 61.6697 10.6611C61.6849 9.46813 61.9288 8.42619 62.4013 7.50505ZM70.5406 8.84901C70.2815 8.35069 69.8852 7.94297 69.3975 7.67116C68.9249 7.39934 68.3915 7.26344 67.8428 7.26344C67.294 7.26344 66.7606 7.39934 66.2881 7.68626C65.8155 7.95807 65.4345 8.36579 65.1754 8.84901C64.8858 9.36243 64.7334 9.96646 64.7334 10.6762C64.7181 11.3255 64.8705 11.9597 65.1754 12.5185C65.4345 13.0168 65.8308 13.4396 66.3185 13.7265C66.7758 13.9983 67.3093 14.1493 67.8428 14.1493C68.3915 14.1493 68.9249 14.0134 69.3975 13.7416C69.8852 13.4698 70.2815 13.047 70.5406 12.5638C70.8302 12.0503 70.9674 11.4312 70.9674 10.7064C70.9674 9.96646 70.8302 9.36243 70.5406 8.84901Z" fill="black"/>
<path d="M82.2924 7.27852H80.2348V16.5352H77.2168V7.27852H75.8755V4.84732H77.2168V4.25839C77.2168 2.82383 77.6283 1.76678 78.4514 1.10235C79.2593 0.422818 80.5091 0.105704 82.1553 0.151006V2.64262C81.4389 2.62752 80.9206 2.74832 80.6463 3.00503C80.3567 3.26174 80.2195 3.71476 80.2195 4.37919V4.86242H82.2772V7.27852H82.2924Z" fill="black"/>
<path d="M88.5264 7.27852H86.4687V16.5352H83.4356V7.27852H82.0942V4.84732H83.4356V4.25839C83.4356 2.82383 83.8471 1.76678 84.6702 1.10235C85.4932 0.422818 86.7279 0.105704 88.3893 0.151006V2.64262C87.6729 2.62752 87.1546 2.74832 86.8803 3.00503C86.5907 3.26174 86.4535 3.71476 86.4535 4.37919V4.86242H88.5264V7.27852Z" fill="black"/>
<path d="M90.6603 2.95974C90.4926 2.80873 90.3554 2.61242 90.264 2.40101C90.1725 2.1896 90.1268 1.96309 90.142 1.73658C90.142 1.51007 90.1878 1.28356 90.264 1.07215C90.3554 0.860744 90.4926 0.664435 90.6603 0.513428C91.0261 0.196314 91.4834 0.0151062 91.9711 0.0151062C92.4589 0.0151062 92.9161 0.196314 93.2819 0.513428C93.4496 0.664435 93.5868 0.860744 93.6782 1.07215C93.7697 1.28356 93.8154 1.51007 93.8002 1.73658C93.8002 1.96309 93.7544 2.1896 93.6782 2.40101C93.5868 2.61242 93.4496 2.80873 93.2819 2.95974C92.9161 3.27685 92.4589 3.45806 91.9711 3.45806C91.4834 3.45806 91.0261 3.27685 90.6603 2.95974ZM93.4496 4.84732V16.5352H90.4621V4.84732H93.4496Z" fill="black"/>
<path d="M96.361 7.52013C96.8335 6.64429 97.5498 5.90436 98.4186 5.40603C99.3027 4.90771 100.309 4.651 101.437 4.651C102.9 4.651 104.104 5.01342 105.064 5.73825C106.024 6.46308 106.665 7.47483 106.985 8.78859H103.769C103.616 8.30536 103.311 7.89765 102.9 7.59563C102.488 7.30872 102.001 7.15771 101.406 7.15771C100.553 7.15771 99.8819 7.45973 99.3789 8.07885C98.8759 8.68288 98.632 9.55872 98.632 10.6762C98.632 11.7936 98.8759 12.6544 99.3789 13.2584C99.8819 13.8624 100.553 14.1795 101.406 14.1795C102.61 14.1795 103.403 13.651 103.769 12.5789H107C106.68 13.8473 106.024 14.844 105.064 15.599C104.104 16.354 102.9 16.7164 101.452 16.7164C100.309 16.7164 99.3027 16.4597 98.4339 15.9614C97.5651 15.4631 96.8487 14.7383 96.3762 13.8473C95.8732 12.9413 95.6293 11.8842 95.6293 10.6762C95.6141 9.48322 95.858 8.42617 96.361 7.52013Z" fill="black"/>
<path d="M47.5098 35.4866C46.7934 35.1846 46.1685 34.7014 45.696 34.0822C45.254 33.5235 44.9948 32.8289 44.9644 32.1191H47.9671C47.9975 32.3456 48.0738 32.5571 48.1805 32.7534C48.3024 32.9497 48.4548 33.1158 48.6377 33.2366C49.034 33.5386 49.5065 33.6745 50.101 33.6745C50.6649 33.6745 51.1069 33.5688 51.427 33.3423C51.7471 33.1158 51.8995 32.8289 51.8995 32.4816C51.8995 32.104 51.7014 31.8171 51.3203 31.6208C50.924 31.4245 50.3144 31.2282 49.4608 31.0017C48.7292 30.8356 47.9975 30.6242 47.2964 30.3524C46.7324 30.1259 46.2447 29.7785 45.8484 29.3255C45.4369 28.8574 45.2387 28.2383 45.2387 27.453C45.2387 26.8188 45.4369 26.1997 45.8027 25.6863C46.1837 25.1577 46.7172 24.7349 47.4183 24.4178C48.1195 24.1007 48.9426 23.9497 49.9028 23.9497C51.3051 23.9497 52.433 24.297 53.2713 24.9916C54.1097 25.6863 54.5669 26.6225 54.6584 27.8003H51.8081C51.7928 27.5889 51.7319 27.3775 51.6404 27.1812C51.5337 26.9849 51.3966 26.8188 51.2289 26.6829C50.8783 26.4111 50.4211 26.2752 49.8418 26.2752C49.3084 26.2752 48.8816 26.3809 48.592 26.5772C48.4548 26.6678 48.3481 26.7886 48.2567 26.9245C48.1805 27.0755 48.15 27.2265 48.15 27.3926C48.15 27.7852 48.3481 28.0873 48.7444 28.2836C49.1407 28.495 49.7656 28.6913 50.5887 28.9027C51.3051 29.0688 52.0062 29.2953 52.6921 29.552C53.2561 29.7785 53.7438 30.141 54.1249 30.594C54.5364 31.0621 54.7346 31.6812 54.7498 32.4665C54.7651 33.1158 54.5669 33.75 54.1859 34.2785C53.8048 34.8071 53.2713 35.2299 52.5702 35.5319C51.8691 35.8339 51.046 35.9849 50.1162 35.9849C49.2169 36.0151 48.3329 35.8339 47.5098 35.4866Z" fill="black"/>
<path d="M60.6638 26.547V32.1946C60.6638 32.5872 60.7552 32.8742 60.9534 33.0554C61.1515 33.2366 61.4716 33.3121 61.9289 33.3121H63.3159V35.8037H61.4259C58.9109 35.8037 57.6611 34.5956 57.6611 32.1795V26.547H56.2588V24.1158H57.6611V21.2315H60.6638V24.1158H63.3007V26.547H60.6638Z" fill="black"/>
<path d="M65.4041 26.7886C65.8309 25.9127 66.5016 25.1879 67.3399 24.6745C68.163 24.1762 69.108 23.9195 70.0682 23.9346C70.9523 23.9346 71.7144 24.1158 72.3698 24.4631C72.9947 24.7802 73.5282 25.2332 73.955 25.7919V24.1309H76.9729V35.8188H73.9702V34.1124C73.5587 34.6862 73.01 35.1544 72.385 35.4715C71.7144 35.8339 70.937 36.0151 70.053 36.0151C69.0927 36.0302 68.1477 35.7584 67.3399 35.2601C66.5016 34.7315 65.8309 33.9916 65.4041 33.1158C64.9316 32.1946 64.6877 31.1376 64.6877 29.9446C64.6877 28.7366 64.9316 27.6946 65.4041 26.7886ZM73.5434 28.1174C73.2843 27.6191 72.888 27.2114 72.4003 26.9396C71.9278 26.6678 71.3943 26.5319 70.8456 26.5319C70.2969 26.5319 69.7634 26.6678 69.2909 26.9547C68.8184 27.2265 68.4373 27.6342 68.1782 28.1174C67.8886 28.6309 67.7362 29.2349 67.7362 29.9446C67.7209 30.5789 67.8734 31.2131 68.1782 31.7869C68.4373 32.2852 68.8336 32.708 69.3214 32.995C69.7786 33.2668 70.3121 33.4178 70.8456 33.4178C71.3943 33.4178 71.9278 33.2819 72.4003 33.0101C72.888 32.7383 73.2843 32.3154 73.5434 31.8322C73.833 31.3188 73.9702 30.6997 73.9702 29.9899C73.9702 29.25 73.833 28.6309 73.5434 28.1174Z" fill="black"/>
<path d="M84.3655 24.4782C85.0056 24.1158 85.7373 23.9346 86.4841 23.9497V27.0453H85.6915C84.7618 27.0453 84.0454 27.2567 83.5729 27.6946C83.1004 28.1325 82.8565 28.8876 82.8565 29.9748V35.7886H79.8843V24.1007H82.8565V25.9128C83.2376 25.3389 83.7558 24.8406 84.3655 24.4782Z" fill="black"/>
<path d="M90.4014 35.4866C89.685 35.1846 89.0601 34.7014 88.5876 34.0822C88.1456 33.5235 87.8864 32.8289 87.856 32.1191H90.8434C90.8739 32.3456 90.9501 32.5571 91.0568 32.7534C91.1787 32.9497 91.3312 33.1158 91.5141 33.2366C91.9104 33.5386 92.3829 33.6745 92.9773 33.6745C93.5413 33.6745 93.9833 33.5688 94.3034 33.3423C94.6235 33.1158 94.7759 32.8289 94.7759 32.4816C94.7759 32.104 94.5777 31.8171 94.1967 31.6208C93.8004 31.4245 93.1907 31.2282 92.3371 31.0017C91.6055 30.8356 90.8739 30.6242 90.1728 30.3524C89.6088 30.1259 89.121 29.7785 88.7248 29.3255C88.3132 28.8574 88.1151 28.2383 88.1151 27.453C88.1151 26.8188 88.3132 26.1997 88.679 25.6863C89.0601 25.1577 89.5936 24.7349 90.2947 24.4178C90.9958 24.1007 91.8189 23.9497 92.7792 23.9497C94.1815 23.9497 95.3094 24.297 96.1477 24.9916C96.986 25.6863 97.4433 26.6225 97.5347 27.8003H94.6844C94.6692 27.5889 94.6082 27.3775 94.5168 27.1812C94.4101 26.9849 94.2729 26.8188 94.1052 26.6829C93.7547 26.4111 93.2974 26.2752 92.7182 26.2752C92.1847 26.2752 91.7579 26.3809 91.4683 26.5772C91.3312 26.6678 91.2245 26.7886 91.133 26.9245C91.0568 27.0755 91.0263 27.2265 91.0263 27.3926C91.0263 27.7852 91.2245 28.0873 91.6208 28.2836C92.0171 28.495 92.642 28.6913 93.4651 28.9027C94.1815 29.0688 94.8826 29.2953 95.5685 29.552C96.1324 29.7785 96.6202 30.141 97.0013 30.594C97.4128 31.0621 97.6109 31.6812 97.6262 32.4665C97.6414 33.1158 97.4433 33.75 97.0622 34.2785C96.6812 34.8071 96.1477 35.2299 95.4466 35.5319C94.7454 35.8339 93.9223 35.9849 92.9926 35.9849C92.1085 36.0151 91.2092 35.8339 90.4014 35.4866Z" fill="black"/>
<path d="M24.1284 3.85066L25.6374 8.07885L30.4539 8.75838C31.1856 8.86409 31.3532 9.73992 30.7131 10.2382L26.5977 13.5302L26.6586 18.1812C26.6739 18.8909 25.7898 19.4346 25.1649 19.1023L21.141 16.9127L16.3702 19.1023C15.6386 19.4346 14.9374 18.8909 15.1813 18.1812L16.797 13.5302L13.779 10.2533C13.3065 9.75503 13.7638 8.86409 14.5411 8.77348L19.5863 8.09395L22.4975 3.86576C22.9243 3.21643 23.8998 3.21643 24.1284 3.85066Z" fill="#1F00FF"/>
<path d="M10.5475 20.1896L12.0565 24.4178L16.873 25.0973C17.6046 25.203 17.7723 26.0789 17.1321 26.5772L13.0167 29.8691L13.0777 34.5201C13.0929 35.2299 12.2089 35.7735 11.584 35.4413L7.52954 33.2517L2.75874 35.4413C2.02712 35.7735 1.32598 35.2299 1.56986 34.5201L3.20077 29.8842L0.182819 26.5923C-0.289689 26.094 0.167576 25.203 0.944927 25.1124L5.99008 24.4329L8.90134 20.2047C9.34336 19.5554 10.3189 19.5554 10.5475 20.1896Z" fill="#1F00FF"/>
<path d="M32.5496 20.4757L34.0586 24.7039L38.8751 25.3834C39.6068 25.4891 39.7744 26.3649 39.1343 26.8633L35.0189 30.1552L35.0798 34.8062C35.0951 35.5159 34.211 36.0596 33.5861 35.7273L29.5469 33.5378L24.7914 35.7273C24.0598 36.0596 23.3586 35.5159 23.6025 34.8062L25.2029 30.1552L22.185 26.8633C21.7277 26.3649 22.1697 25.474 22.9471 25.3834L27.9922 24.7039L30.9035 20.4757C31.3455 19.8414 32.321 19.8414 32.5496 20.4757Z" fill="#1F00FF"/>
</g>
<defs>
<clipPath id="clip0_1016_371">
<rect width="107" height="36" fill="white"/>
</clipPath>
</defs>
</svg>
