<svg width="20" height="20" viewBox="0 0 20 20" fill="none" xmlns="http://www.w3.org/2000/svg">
<g clip-path="url(#clip0_780_361)">
<path fill-rule="evenodd" clip-rule="evenodd" d="M11.3893 19.904C16.2514 19.2264 19.9941 15.051 19.9941 10.0004C19.9941 4.47746 15.5173 0 9.99671 0C4.47614 0 0 4.47746 0 10.0004C0 14.9774 3.63555 19.1059 8.39608 19.8725C8.91725 19.9566 9.45243 20 9.99741 20C10.4695 20 10.9347 19.9671 11.3893 19.904ZM11.3893 10.2078V8.02929L11.39 8.02859C11.39 7.50797 11.8124 7.08545 12.3329 7.08545H14.0841V4.54753H11.404C11.4016 4.54753 11.3993 4.54788 11.397 4.54823C11.3947 4.54858 11.3925 4.54893 11.39 4.54893V4.54753C9.73614 4.54753 8.3961 5.88866 8.3961 7.54231V10.2078H5.91146V13.1423H8.3961V19.8718C8.91726 19.9559 9.45244 19.9993 9.99742 19.9993C10.4696 19.9993 10.9347 19.9664 11.3893 19.9033V13.1423H13.6568L14.0834 10.2078H11.3893Z" fill="white"/>
</g>
<defs>
<clipPath id="clip0_780_361">
<rect width="20" height="20" fill="white"/>
</clipPath>
</defs>
</svg>
