<svg width="20" height="20" viewBox="0 0 20 20" fill="none" xmlns="http://www.w3.org/2000/svg">
<g clip-path="url(#clip0_780_365)">
<path fill-rule="evenodd" clip-rule="evenodd" d="M10 20C15.5229 20 20 15.5229 20 10C20 4.47705 15.5229 0 10 0C4.47705 0 0 4.47705 0 10C0 15.5229 4.47705 20 10 20ZM16 7.46289C16 5.55127 14.4487 4 12.5369 4H7.46313C5.55127 4 4 5.55127 4 7.46289V12.5371C4 14.4487 5.55127 16 7.46313 16H12.5369C14.4487 16 16 14.4487 16 12.5371V7.46289ZM10 13.1431C8.28149 13.1431 6.88647 11.7485 6.88647 10.0298C6.88647 8.31104 8.28149 6.9165 10 6.9165C11.7185 6.9165 13.1135 8.31104 13.1135 10.0298C13.1135 11.7485 11.7185 13.1431 10 13.1431ZM13.2175 7.52246C12.8159 7.52246 12.4922 7.19922 12.4922 6.79736C12.4922 6.39551 12.8159 6.07178 13.2175 6.07178C13.6194 6.07178 13.9429 6.39551 13.9429 6.79736C13.9429 7.19922 13.6194 7.52246 13.2175 7.52246ZM11.4629 11.4946C12.2554 10.7021 12.2554 9.41699 11.4629 8.62451C10.6702 7.83203 9.38525 7.83203 8.59253 8.62451C7.80005 9.41699 7.80005 10.7021 8.59253 11.4946C9.38525 12.2871 10.6702 12.2871 11.4629 11.4946Z" fill="white"/>
</g>
<defs>
<clipPath id="clip0_780_365">
<rect width="20" height="20" fill="white"/>
</clipPath>
</defs>
</svg>
