<svg width="20" height="20" viewBox="0 0 20 20" fill="none" xmlns="http://www.w3.org/2000/svg">
<path d="M17.7778 0C19.0051 0 20 0.994923 20 2.22222V17.7778C20 19.0051 19.0051 20 17.7778 20H2.22222C0.994923 20 0 19.0051 0 17.7778V2.22222C0 0.994923 0.994923 0 2.22222 0H17.7778ZM17.2222 17.2222V11.3333C17.2222 9.33284 15.6005 7.71111 13.6 7.71111C12.6556 7.71111 11.5556 8.28889 11.0222 9.15556V7.92222H7.92222V17.2222H11.0222V11.7444C11.0222 10.8889 11.7111 10.1889 12.5667 10.1889C13.4258 10.1889 14.1222 10.8853 14.1222 11.7444V17.2222H17.2222ZM4.31111 6.17778C5.34204 6.17778 6.17778 5.34204 6.17778 4.31111C6.17778 3.27778 5.34444 2.43333 4.31111 2.43333C3.27404 2.43333 2.43333 3.27404 2.43333 4.31111C2.43333 5.34444 3.27778 6.17778 4.31111 6.17778ZM5.85556 17.2222V7.92222H2.77778V17.2222H5.85556Z" fill="white"/>
</svg>
