<svg width="21" height="20" viewBox="0 0 21 20" fill="none" xmlns="http://www.w3.org/2000/svg">
<rect x="0.5" width="20" height="20" rx="10" fill="#1F00FF"/>
<path d="M5.46967 14.4697C5.17678 14.7626 5.17678 15.2374 5.46967 15.5303C5.76256 15.8232 6.23744 15.8232 6.53033 15.5303L6 15L5.46967 14.4697ZM15.75 6C15.75 5.58579 15.4142 5.25 15 5.25L8.25 5.25C7.83579 5.25 7.5 5.58579 7.5 6C7.5 6.41421 7.83579 6.75 8.25 6.75H14.25V12.75C14.25 13.1642 14.5858 13.5 15 13.5C15.4142 13.5 15.75 13.1642 15.75 12.75L15.75 6ZM6 15L6.53033 15.5303L15.5303 6.53033L15 6L14.4697 5.46967L5.46967 14.4697L6 15Z" fill="white"/>
</svg>
