<svg width="20" height="20" viewBox="0 0 20 20" fill="none" xmlns="http://www.w3.org/2000/svg">
<rect width="20" height="20" rx="10" fill="#020202"/>
<path d="M4.96967 14.4697C4.67678 14.7626 4.67678 15.2374 4.96967 15.5303C5.26256 15.8232 5.73744 15.8232 6.03033 15.5303L5.5 15L4.96967 14.4697ZM15.25 6C15.25 5.58579 14.9142 5.25 14.5 5.25L7.75 5.25C7.33579 5.25 7 5.58579 7 6C7 6.41421 7.33579 6.75 7.75 6.75H13.75V12.75C13.75 13.1642 14.0858 13.5 14.5 13.5C14.9142 13.5 15.25 13.1642 15.25 12.75L15.25 6ZM5.5 15L6.03033 15.5303L15.0303 6.53033L14.5 6L13.9697 5.46967L4.96967 14.4697L5.5 15Z" fill="white"/>
</svg>
