<svg width="17" height="20" viewBox="0 0 17 20" fill="none" xmlns="http://www.w3.org/2000/svg">
<path d="M14.883 4.27729C14.7506 4.20752 14.6217 4.13104 14.4968 4.04813C14.1337 3.80333 13.8007 3.51489 13.5051 3.18901C12.7655 2.32613 12.4893 1.45076 12.3876 0.837875H12.3917C12.3067 0.32915 12.3418 0 12.3471 0H8.97851V13.2818C8.97851 13.4602 8.97851 13.6364 8.97116 13.8106C8.97116 13.8322 8.96911 13.8522 8.96789 13.8756C8.96789 13.8851 8.96789 13.8951 8.96584 13.9051C8.96584 13.9076 8.96584 13.9101 8.96584 13.9126C8.93033 14.3892 8.78052 14.8495 8.52957 15.2532C8.27862 15.6568 7.93424 15.9914 7.52671 16.2275C7.10197 16.4739 6.62158 16.6032 6.13293 16.6025C4.56344 16.6025 3.29143 15.2976 3.29143 13.686C3.29143 12.0744 4.56344 10.7695 6.13293 10.7695C6.43002 10.7692 6.72529 10.8169 7.00777 10.9107L7.01185 7.41338C6.15432 7.30043 5.28314 7.36992 4.45327 7.61747C3.62339 7.86502 2.85284 8.28524 2.19021 8.85164C1.6096 9.36603 1.12148 9.97979 0.747808 10.6653C0.605611 10.9153 0.0691014 11.9198 0.00413184 13.5502C-0.0367295 14.4755 0.235816 15.4342 0.365755 15.8305V15.8388C0.447477 16.0721 0.764153 16.8683 1.28023 17.5395C1.69638 18.078 2.18804 18.5509 2.73939 18.9432V18.9349L2.74756 18.9432C4.37834 20.0732 6.18645 19.999 6.18645 19.999C6.49945 19.9861 7.54795 19.999 8.73865 19.4236C10.0593 18.7857 10.8111 17.8354 10.8111 17.8354C11.2915 17.2675 11.6734 16.6204 11.9405 15.9217C12.2454 15.1047 12.3471 14.1247 12.3471 13.7331V6.68675C12.388 6.71175 12.9323 7.07881 12.9323 7.07881C12.9323 7.07881 13.7164 7.59129 14.9398 7.92502C15.8175 8.16251 17 8.21251 17 8.21251V4.80268C16.5857 4.84851 15.7443 4.71518 14.883 4.27729Z" fill="white"/>
</svg>
