<svg width="29" height="21" viewBox="0 0 29 21" fill="none" xmlns="http://www.w3.org/2000/svg">
<g clip-path="url(#clip0_8_56)">
<path d="M16.0308 0C16.0603 0.0486192 16.1381 0.0292887 16.186 0.0298745C18.3856 0.0538912 20.5904 0.0796653 22.7838 0.234603C25.2836 0.411506 27.7302 0.512259 28.4422 3.49063C28.8741 5.29715 28.9483 7.63381 28.9706 9.50448C28.9712 9.55398 28.9525 9.63481 28.9995 9.66527V11.364L28.9723 12.2585C28.9231 13.877 28.8197 15.9474 28.4422 17.5094C27.8633 19.904 26.2352 20.4201 24.0865 20.6485C21.2995 20.9446 18.4222 20.9344 15.6196 20.9704C15.5717 20.971 15.4936 20.9517 15.4644 21.0003H13.5389C13.5094 20.9517 13.4316 20.971 13.3837 20.9704C10.8901 20.9435 8.39282 20.9288 5.90799 20.7364C3.48094 20.5484 1.25072 20.3633 0.561117 17.5097C0.126966 15.7146 0.0547494 13.382 0.0323763 11.5248C0.0318099 11.4753 0.0505013 11.3945 0.00348962 11.364C0.0122689 10.7888 -0.00840491 10.2109 0.00348962 9.63598C0.0428549 7.74774 0.123568 5.34519 0.555169 3.51435C1.11648 1.13347 2.71601 0.58431 4.86014 0.351757C7.48855 0.0664854 10.3333 0.0325105 12.9725 0H16.0308ZM11.5851 14.9958L19.1169 10.5L11.5851 6.00418V14.9958Z" fill="white"/>
</g>
<defs>
<clipPath id="clip0_8_56">
<rect width="29" height="21" fill="white"/>
</clipPath>
</defs>
</svg>
